<svg id="Component_7732_3" data-name="Component 7732 – 3" xmlns="http://www.w3.org/2000/svg" width="172" height="32" viewBox="0 0 172 32">
  <g id="Group_169191" data-name="Group 169191">
    <g id="Group_50613" data-name="Group 50613">
      <path id="Path_47045" data-name="Path 47045" d="M150.316,275.662c-2.5,2.673-3.432,2.652-6.029,0l-3.843-3.882h-5.6l7.979,8.058a6.294,6.294,0,0,0,8.969,0l7.985-8.058h-5.61Z" transform="translate(-132.798 -252.716)" fill="#ff7c04"/>
      <path id="Path_47046" data-name="Path 47046" d="M123.624,135.2c-1.583-2.052-1.173-3,1.027-5.022l5.469-5.515c2.527-2.639,3.531-2.612,6.037,0l5.473,5.518a5.625,5.625,0,0,1,1.465,1.724,2.284,2.284,0,0,0-1.932-.838l-12.989.009a2.007,2.007,0,0,0-1.992,2.015l0,2.108h21.1a6.281,6.281,0,0,0-1.513-6.5l-8.143-8.213a6.316,6.316,0,0,0-8.981,0l-8.14,8.213a6.263,6.263,0,0,0-1.55,6.5h4.666Z" transform="translate(-118.634 -118.61)" fill="#ff7c04"/>
    </g>
    <g id="Group_50616" data-name="Group 50616" transform="translate(33 4)">
      <g id="Group_50614" data-name="Group 50614" transform="translate(0 0)">
        <path id="Path_47047" data-name="Path 47047" d="M387.451,214.87v8.852H385.67V202.914h1.781v2.728h.055a5.659,5.659,0,0,1,2.123-2.275,6.191,6.191,0,0,1,5.443-.292,5.07,5.07,0,0,1,1.823,1.4,6.346,6.346,0,0,1,1.141,2.2,9.911,9.911,0,0,1,.4,2.909,10.966,10.966,0,0,1-.446,3.223,7.432,7.432,0,0,1-1.28,2.5,5.822,5.822,0,0,1-2.025,1.621,6.054,6.054,0,0,1-2.68.577,4.846,4.846,0,0,1-4.5-2.631h-.057Zm0-3.632a5.059,5.059,0,0,0,.328,1.831,4.722,4.722,0,0,0,.912,1.5,4.247,4.247,0,0,0,1.412,1.023,4.373,4.373,0,0,0,1.831.375,4.112,4.112,0,0,0,1.935-.452,4.223,4.223,0,0,0,1.469-1.288,6.247,6.247,0,0,0,.932-2.018,9.925,9.925,0,0,0,.328-2.644,7.775,7.775,0,0,0-.306-2.262,5.119,5.119,0,0,0-.869-1.718,3.76,3.76,0,0,0-1.364-1.086,4.158,4.158,0,0,0-1.789-.375,4.739,4.739,0,0,0-2,.411,4.523,4.523,0,0,0-1.517,1.12,4.966,4.966,0,0,0-.96,1.663,6.068,6.068,0,0,0-.334,2.025v1.894Z" transform="translate(-385.67 -195.867)" fill="#0061fa"/>
        <path id="Path_47048" data-name="Path 47048" d="M504.345,217.691a7.2,7.2,0,0,1-2.846-.536,6.077,6.077,0,0,1-2.151-1.517,6.723,6.723,0,0,1-1.364-2.348,9.205,9.205,0,0,1-.474-3.032,9.672,9.672,0,0,1,.5-3.23,6.82,6.82,0,0,1,1.426-2.419,6.108,6.108,0,0,1,2.234-1.517,7.84,7.84,0,0,1,2.923-.522,7.185,7.185,0,0,1,2.783.515,5.672,5.672,0,0,1,2.1,1.489,6.646,6.646,0,0,1,1.323,2.37,10.141,10.141,0,0,1,.46,3.174,9.389,9.389,0,0,1-.48,3.082,7,7,0,0,1-1.371,2.391,6.066,6.066,0,0,1-2.171,1.551A7.278,7.278,0,0,1,504.345,217.691Zm.139-13.555a5.286,5.286,0,0,0-2.115.409,4.441,4.441,0,0,0-1.621,1.192,5.416,5.416,0,0,0-1.037,1.918,8.446,8.446,0,0,0-.362,2.574,7.711,7.711,0,0,0,.362,2.44,5.512,5.512,0,0,0,1.023,1.861,4.417,4.417,0,0,0,1.608,1.191,5.672,5.672,0,0,0,4.231.014,4.18,4.18,0,0,0,1.559-1.171,5.17,5.17,0,0,0,.968-1.883,9.027,9.027,0,0,0,.328-2.539,6.837,6.837,0,0,0-1.28-4.465A4.5,4.5,0,0,0,504.483,204.137Z" transform="translate(-483.419 -196.058)" fill="#0061fa"/>
        <path id="Path_47049" data-name="Path 47049" d="M617.2,171.981v-21.1h1.781v21.1Z" transform="translate(-588.03 -150.88)" fill="#0061fa"/>
        <path id="Path_47050" data-name="Path 47050" d="M651.016,217.353v-2.567h-.055a5.268,5.268,0,0,1-1.9,2.144,4.979,4.979,0,0,1-2.721.762,5.48,5.48,0,0,1-1.858-.3,4,4,0,0,1-1.406-.839,3.684,3.684,0,0,1-.891-1.3,4.368,4.368,0,0,1-.314-1.679,4.158,4.158,0,0,1,1.2-3.124,6.393,6.393,0,0,1,3.618-1.517l4.329-.635q0-4.161-3.187-4.161a6.924,6.924,0,0,0-4.621,1.847v-1.975a6.005,6.005,0,0,1,1.009-.585,9.294,9.294,0,0,1,1.191-.452,9.692,9.692,0,0,1,1.288-.3,8.191,8.191,0,0,1,1.288-.106,4.594,4.594,0,0,1,3.6,1.355,5.864,5.864,0,0,1,1.218,4.034v9.394Zm-3.675-7.01a11.184,11.184,0,0,0-1.643.352,3.371,3.371,0,0,0-1.128.571,2.123,2.123,0,0,0-.654.889,3.582,3.582,0,0,0-.209,1.3,2.8,2.8,0,0,0,.2,1.072,2.387,2.387,0,0,0,.585.853,2.635,2.635,0,0,0,.932.557,3.672,3.672,0,0,0,1.246.2,4.084,4.084,0,0,0,3.111-1.381,4.721,4.721,0,0,0,.9-1.551,5.713,5.713,0,0,0,.328-1.961V209.82Z" transform="translate(-609.592 -196.058)" fill="#0061fa"/>
        <path id="Path_47051" data-name="Path 47051" d="M746.192,205.239a2.637,2.637,0,0,0-1.615-.466,2.741,2.741,0,0,0-1.252.275,3.186,3.186,0,0,0-.954.741,4.483,4.483,0,0,0-.7,1.079,7.585,7.585,0,0,0-.46,1.277,9.557,9.557,0,0,0-.251,1.341,11.329,11.329,0,0,0-.077,1.284v7.069H739.12V203.389h1.768v3.09h.055a6.454,6.454,0,0,1,.634-1.418,4.362,4.362,0,0,1,.885-1.059,3.678,3.678,0,0,1,1.092-.656,3.457,3.457,0,0,1,1.246-.226,4.831,4.831,0,0,1,.772.056,2.9,2.9,0,0,1,.62.17Z" transform="translate(-694.589 -196.538)" fill="#0061fa"/>
        <path id="Path_47052" data-name="Path 47052" d="M803.956,159.052a1.242,1.242,0,0,1-.891-.362,1.219,1.219,0,0,1-.375-.918,1.183,1.183,0,0,1,.375-.9,1.252,1.252,0,0,1,.891-.355,1.393,1.393,0,0,1,.5.091,1.219,1.219,0,0,1,.411.257,1.259,1.259,0,0,1,.278.4,1.22,1.22,0,0,1,.1.508,1.315,1.315,0,0,1-.1.5,1.2,1.2,0,0,1-.278.411,1.33,1.33,0,0,1-.411.271A1.309,1.309,0,0,1,803.956,159.052Zm-.877,17.858V162.657h1.781V176.91Z" transform="translate(-750.15 -155.809)" fill="#0061fa"/>
        <path id="Path_47053" data-name="Path 47053" d="M830.443,214.758a5.756,5.756,0,0,0,.877.578,7.317,7.317,0,0,0,.974.437,5.926,5.926,0,0,0,1.009.275,5.447,5.447,0,0,0,.968.092q3.173,0,3.174-2.412a1.935,1.935,0,0,0-.223-.952,2.471,2.471,0,0,0-.64-.733,5.406,5.406,0,0,0-1-.614q-.584-.282-1.323-.592a13.118,13.118,0,0,1-1.7-.832,5.123,5.123,0,0,1-1.169-.924,3.32,3.32,0,0,1-.682-1.1,3.884,3.884,0,0,1-.223-1.361,3.493,3.493,0,0,1,.411-1.707A3.944,3.944,0,0,1,832,203.641a5.115,5.115,0,0,1,1.608-.8,6.572,6.572,0,0,1,1.914-.274,7,7,0,0,1,3.229.7v1.9a6.2,6.2,0,0,0-3.452-1.043,4.1,4.1,0,0,0-1.218.17,2.815,2.815,0,0,0-.94.48,2.211,2.211,0,0,0-.606.741,2.1,2.1,0,0,0-.215.952,2.42,2.42,0,0,0,.168.938,2.031,2.031,0,0,0,.522.726,4.38,4.38,0,0,0,.918.62q.563.3,1.371.635a17.349,17.349,0,0,1,1.781.839,5.522,5.522,0,0,1,1.238.9,3.167,3.167,0,0,1,.723,1.087,3.773,3.773,0,0,1,.237,1.389,3.622,3.622,0,0,1-1.5,3.018,5.029,5.029,0,0,1-1.649.79,7.537,7.537,0,0,1-2.06.268,6.75,6.75,0,0,1-3.632-.917v-2.017Z" transform="translate(-774.404 -196.058)" fill="#0061fa"/>
      </g>
      <g id="Group_50615" data-name="Group 50615" transform="translate(67.126 0.02)">
        <path id="Path_47054" data-name="Path 47054" d="M928.3,211.44H919q.223,3.145,3.912,3.146a7.567,7.567,0,0,0,4.134-1.13v3.216a10.729,10.729,0,0,1-5.135,1.071,7.158,7.158,0,0,1-5.356-1.939,7.369,7.369,0,0,1-1.909-5.4,7.787,7.787,0,0,1,2.06-5.7,6.811,6.811,0,0,1,5.062-2.1,6.181,6.181,0,0,1,4.822,1.877,7.29,7.29,0,0,1,1.7,5.09v1.873Zm-4.077-2.735q0-3.1-2.477-3.1a2.353,2.353,0,0,0-1.828.889,4.107,4.107,0,0,0-.942,2.214Z" transform="translate(-914.65 -196.104)" fill="#0061fa"/>
        <path id="Path_47055" data-name="Path 47055" d="M1048.189,172.132h-4.4v-1.963h-.055a4.934,4.934,0,0,1-4.412,2.309,5.394,5.394,0,0,1-4.3-1.884,7.8,7.8,0,0,1-1.626-5.268,8.475,8.475,0,0,1,1.793-5.659,5.855,5.855,0,0,1,4.707-2.132,4,4,0,0,1,3.838,1.977h.055V151.04h4.4v21.092Zm-4.313-6.931V164.13a3.366,3.366,0,0,0-.806-2.309,2.853,2.853,0,0,0-4.383.231,5.33,5.33,0,0,0-.82,3.151,4.632,4.632,0,0,0,.792,2.9,2.815,2.815,0,0,0,4.377-.055,4.5,4.5,0,0,0,.84-2.841" transform="translate(-1018.439 -151.04)" fill="#0061fa"/>
        <path id="Path_47056" data-name="Path 47056" d="M1176.249,215.539a8.062,8.062,0,0,1-2.3,6.144q-2.294,2.173-6.65,2.175a10.57,10.57,0,0,1-4.565-.818v-3.705a8.753,8.753,0,0,0,4.441,1.281,4.768,4.768,0,0,0,3.447-1.177,4.21,4.21,0,0,0,1.227-3.191v-1.126h-.059a4.907,4.907,0,0,1-4.434,2.394,5.348,5.348,0,0,1-4.33-1.921,7.772,7.772,0,0,1-1.6-5.145,8.656,8.656,0,0,1,1.781-5.748,5.811,5.811,0,0,1,4.688-2.132,4.317,4.317,0,0,1,3.893,2.007h.059v-1.654h4.4Zm-4.343-5.217V209.2a3.446,3.446,0,0,0-.8-2.3,2.58,2.58,0,0,0-2.08-.955,2.693,2.693,0,0,0-2.3,1.141,5.372,5.372,0,0,0-.834,3.214,4.535,4.535,0,0,0,.792,2.817,2.591,2.591,0,0,0,2.171,1.039,2.69,2.69,0,0,0,2.2-1.056,4.28,4.28,0,0,0,.843-2.774" transform="translate(-1130.339 -195.878)" fill="#0061fa"/>
        <path id="Path_47057" data-name="Path 47057" d="M1303.13,211.44h-9.3q.219,3.145,3.909,3.146a7.556,7.556,0,0,0,4.132-1.13v3.216a10.716,10.716,0,0,1-5.134,1.071,7.169,7.169,0,0,1-5.357-1.939,7.382,7.382,0,0,1-1.9-5.4,7.787,7.787,0,0,1,2.06-5.7,6.807,6.807,0,0,1,5.062-2.1,6.181,6.181,0,0,1,4.822,1.877,7.29,7.29,0,0,1,1.7,5.09v1.873Zm-4.078-2.735q0-3.1-2.477-3.1a2.349,2.349,0,0,0-1.828.889,4.106,4.106,0,0,0-.942,2.214Z" transform="translate(-1242.256 -196.104)" fill="#0061fa"/>
      </g>
    </g>
  </g>
  <path id="Path_51619" data-name="Path 51619" d="M0,0H3V28H0Z" transform="translate(169 4)" fill="#dadada"/>
</svg>
