<svg xmlns="http://www.w3.org/2000/svg" width="10" height="6" viewBox="0 0 10 6">
  <path id="expand_more_FILL0_wght400_GRAD0_opsz24" d="M262-618a.975.975,0,0,1-.336-.057.786.786,0,0,1-.291-.195l-4.126-4.214a.879.879,0,0,1-.247-.641.878.878,0,0,1,.247-.641.841.841,0,0,1,.628-.252.841.841,0,0,1,.628.252l3.5,3.572,3.5-3.572a.841.841,0,0,1,.628-.252.841.841,0,0,1,.628.252.878.878,0,0,1,.247.641.879.879,0,0,1-.247.641l-4.126,4.214a.787.787,0,0,1-.292.195A.974.974,0,0,1,262-618Z" transform="translate(-257 624)" fill="#999"/>
</svg>
