<svg id="Group_168645" data-name="Group 168645" xmlns="http://www.w3.org/2000/svg" width="114" height="28" viewBox="0 0 114 28">
  <path id="Path_40717" data-name="Path 40717" d="M1003.34,108.913h-.877l-4.135-10.69H999.4l3.184,8.508a6.956,6.956,0,0,1,.324,1.117h.041a6.581,6.581,0,0,1,.3-1.075l3.289-8.55h1.044Z" transform="translate(-928.04 -90.322)" fill="#0061fa"/>
  <path id="Path_40718" data-name="Path 40718" d="M1029.255,102.351a4.732,4.732,0,0,0-.887-2.872,2.764,2.764,0,0,0-2.276-1.023,3.337,3.337,0,0,0-2.49,1.008,4.83,4.83,0,0,0-1.216,2.886Zm-6.911.876a5.286,5.286,0,0,0,1.018,3.445,3.414,3.414,0,0,0,2.792,1.242,5.678,5.678,0,0,0,3.507-1.326v1.023a6.248,6.248,0,0,1-3.706,1.18,4.193,4.193,0,0,1-3.341-1.483,6.231,6.231,0,0,1-1.274-4.186,5.965,5.965,0,0,1,1.331-3.942,4.287,4.287,0,0,1,3.461-1.6,3.612,3.612,0,0,1,3.058,1.4,6.167,6.167,0,0,1,1.066,3.822v.427Z" transform="translate(-941.764 -89.939)" fill="#0061fa"/>
  <path id="Path_40719" data-name="Path 40719" d="M1052.223,98.919a1.886,1.886,0,0,0-1.128-.345,2.5,2.5,0,0,0-2.119,1.305,6.742,6.742,0,0,0-.856,3.707v5.021h-.94V97.917h.94v2.369h.042a3.884,3.884,0,0,1,1.159-1.9,2.738,2.738,0,0,1,1.837-.679,2.856,2.856,0,0,1,1.065.188Z" transform="translate(-957.155 -90.012)" fill="#0061fa"/>
  <path id="Path_40720" data-name="Path 40720" d="M1066.444,108.913h-.877l-4.133-10.69h1.075l3.184,8.508a6.88,6.88,0,0,1,.324,1.117h.041a6.616,6.616,0,0,1,.3-1.075l3.289-8.55h1.044Z" transform="translate(-965.741 -90.322)" fill="#0061fa"/>
  <path id="Path_40721" data-name="Path 40721" d="M1092.357,102.351a4.735,4.735,0,0,0-.888-2.872,2.764,2.764,0,0,0-2.276-1.023,3.338,3.338,0,0,0-2.49,1.008,4.842,4.842,0,0,0-1.216,2.886Zm-6.912.876a5.286,5.286,0,0,0,1.019,3.445,3.413,3.413,0,0,0,2.792,1.242,5.677,5.677,0,0,0,3.508-1.326v1.023a6.249,6.249,0,0,1-3.706,1.18,4.192,4.192,0,0,1-3.34-1.483,6.23,6.23,0,0,1-1.274-4.186,5.965,5.965,0,0,1,1.331-3.942,4.288,4.288,0,0,1,3.461-1.6,3.615,3.615,0,0,1,3.059,1.4,6.17,6.17,0,0,1,1.065,3.822v.427Z" transform="translate(-979.402 -89.939)" fill="#0061fa"/>
  <path id="Path_40722" data-name="Path 40722" d="M892.717,102.017q0-2.3-1.858-2.3a1.773,1.773,0,0,0-1.373.658,2.985,2.985,0,0,0-.7,1.639Zm3.059,2.025H888.8q.168,2.329,2.935,2.329a5.724,5.724,0,0,0,3.1-.836v2.38a8.139,8.139,0,0,1-3.852.794,4.975,4.975,0,0,1-5.45-5.439,5.722,5.722,0,0,1,1.545-4.218,5.149,5.149,0,0,1,3.8-1.555,4.673,4.673,0,0,1,3.618,1.389,5.345,5.345,0,0,1,1.279,3.768Z" transform="translate(-860.765 -89.888)" fill="#0061fa"/>
  <path id="Path_40723" data-name="Path 40723" d="M921.068,96.124v-.8a2.528,2.528,0,0,0-.606-1.732,2.139,2.139,0,0,0-3.288.171,4,4,0,0,0-.616,2.365,3.459,3.459,0,0,0,.6,2.171,2.113,2.113,0,0,0,3.284-.041,3.352,3.352,0,0,0,.631-2.13m3.237,5.2h-3.3V99.851h-.042a3.7,3.7,0,0,1-3.309,1.734,4.053,4.053,0,0,1-3.226-1.416,5.851,5.851,0,0,1-1.222-3.951,6.371,6.371,0,0,1,1.348-4.249,4.392,4.392,0,0,1,3.528-1.6,3,3,0,0,1,2.881,1.483h.042V85.5h3.3Z" transform="translate(-877.273 -82.451)" fill="#0061fa"/>
  <path id="Path_40724" data-name="Path 40724" d="M951.02,103.31v-.845a2.6,2.6,0,0,0-.6-1.729,1.939,1.939,0,0,0-1.561-.714,2.018,2.018,0,0,0-1.723.856,4.029,4.029,0,0,0-.626,2.412,3.4,3.4,0,0,0,.595,2.114,1.939,1.939,0,0,0,1.629.778,2.02,2.02,0,0,0,1.655-.788,3.23,3.23,0,0,0,.631-2.082m3.257,3.915a6.044,6.044,0,0,1-1.723,4.609,6.98,6.98,0,0,1-4.99,1.634,7.926,7.926,0,0,1-3.425-.616v-2.777a6.554,6.554,0,0,0,3.331.96,3.586,3.586,0,0,0,2.589-.882,3.163,3.163,0,0,0,.919-2.4v-.845h-.041a3.688,3.688,0,0,1-3.33,1.8,4.009,4.009,0,0,1-3.248-1.441,5.847,5.847,0,0,1-1.2-3.863,6.508,6.508,0,0,1,1.335-4.312,4.366,4.366,0,0,1,3.519-1.6,3.248,3.248,0,0,1,2.923,1.5h.041V97.757h3.3Z" transform="translate(-895.14 -90.005)" fill="#0061fa"/>
  <path id="Path_40725" data-name="Path 40725" d="M980.29,102.017q0-2.3-1.858-2.3a1.773,1.773,0,0,0-1.373.658,2.99,2.99,0,0,0-.7,1.639Zm3.059,2.025h-6.974q.167,2.329,2.934,2.329a5.72,5.72,0,0,0,3.1-.836v2.38a8.142,8.142,0,0,1-3.853.794,4.976,4.976,0,0,1-5.449-5.439,5.718,5.718,0,0,1,1.545-4.218,5.146,5.146,0,0,1,3.8-1.555,4.673,4.673,0,0,1,3.618,1.389,5.348,5.348,0,0,1,1.278,3.768Z" transform="translate(-913.001 -89.888)" fill="#0061fa"/>
  <path id="Path_40726" data-name="Path 40726" d="M1018.841,136.376l.005.345v.023h.005a.114.114,0,0,1,.02-.035,1.092,1.092,0,0,1,.918-.374.847.847,0,0,1,.838.692V139.4h-.429v-2.175a.607.607,0,0,0-.651-.574c-.3,0-.681.269-.693.54V139.4h-.429v-3.024h.417Zm5.765,2.441a1.277,1.277,0,0,0,.9.4c.345,0,.654-.166.654-.492,0-.272-.24-.431-.672-.613a1.6,1.6,0,0,1-.778-.5,1.846,1.846,0,0,1,.027.307,1.437,1.437,0,1,1-2.857,0,1.66,1.66,0,0,1,.59-1.292h-.966V139.4h-.43v-2.765h-.378v-.288h.385a.89.89,0,0,1,.907-.91,1.5,1.5,0,0,1,.6.082v.394c0,.028,0,.047,0,.047h-.016a.844.844,0,0,0-.667-.249c-.285,0-.474.232-.409.637h1.607a1.255,1.255,0,0,1,.2-.016,1.428,1.428,0,0,1,1.294.919c0-.03,0-.061,0-.094,0-.567.547-.809,1.118-.806h.065a2.807,2.807,0,0,1,.66.108l.158.389.181.441.482,1.179.059.19.063-.19.611-1.513c.113-.416.56-.6,1.053-.6a1.811,1.811,0,0,1,.644.1v.458a1.194,1.194,0,0,0-.762-.307c-.267,0-.586.118-.586.51-.006.295.171.349.69.606.426.185.821.39.823.863,0,.789-.778.926-1.157.926a1.351,1.351,0,0,1-.821-.225v-.522l.028.023a1.314,1.314,0,0,0,.931.436c.345,0,.654-.167.654-.492,0-.272-.241-.43-.673-.613-.41-.178-.681-.3-.792-.591-.167.409-.948,2.309-1.133,2.716h-.421l.1-.186.089-.166,0,0c.106-.208.26-.533.4-.845l-.81-1.956c-.006-.012-.019-.042-.046-.1a.523.523,0,0,0-.3-.339.939.939,0,0,0-.31-.048c-.267,0-.608.118-.608.51,0,.295.192.349.711.606.427.186.82.389.823.863,0,.79-.778.926-1.157.927a1.453,1.453,0,0,1-.758-.182Zm1.991-1.971c.006.016.013.033.02.05l.161.392Zm-.028,3.219c.022-.037.051-.093.089-.166Zm-.323-2.971-.017-.04Zm-3.934.868c.012.718.459,1.291,1,1.281s.966-.6.955-1.317-.46-1.292-1-1.282-.967.6-.954,1.318m-4.832-2.033v-.479h.475V139.4h-.475v-3.47Zm12.8-.328h.085c.045,0,.073.019.073.056s-.029.055-.065.055h-.093Zm-.077.35h.077v-.171h.091l.067.171h.085l-.079-.182a.1.1,0,0,0,.074-.1c0-.124-.092-.137-.172-.137h-.142Zm-.191-.2a.342.342,0,1,1,.343.342.343.343,0,0,1-.343-.342m.343.4a.4.4,0,1,0-.4-.4.4.4,0,0,0,.4.4" transform="translate(-939.484 -112.739)" fill="#999"/>
  <path id="Path_40727" data-name="Path 40727" d="M1000.084,136.192c-.013-.035-.026-.076-.041-.122a1.179,1.179,0,0,1-.035-.159H1000a1.575,1.575,0,0,1-.037.159c-.014.046-.028.087-.041.122l-.646,1.776h1.461Zm1.217,3.293-.44-1.18h-1.712l-.429,1.18h-.412l1.52-3.992h.373l1.512,3.992Z" transform="translate(-928.003 -112.825)" fill="#999"/>
  <path id="Path_40728" data-name="Path 40728" d="M1010.016,141.056v-1.642q0-.967-.7-.966a.808.808,0,0,0-.345.074.817.817,0,0,0-.274.2.943.943,0,0,0-.181.31,1.121,1.121,0,0,0-.066.388v1.631h-.356v-2.851h.356v.5h.011a1.031,1.031,0,0,1,.955-.562.863.863,0,0,1,.713.3,1.371,1.371,0,0,1,.245.877v1.737Z" transform="translate(-933.833 -114.396)" fill="#999"/>
  <path id="Path_40729" data-name="Path 40729" d="M1053.922,140.928a1.5,1.5,0,0,1-.768.2,1.323,1.323,0,0,1-.551-.106,1.207,1.207,0,0,1-.417-.3,1.334,1.334,0,0,1-.264-.457,1.727,1.727,0,0,1-.092-.572,1.827,1.827,0,0,1,.1-.6,1.451,1.451,0,0,1,.284-.493,1.347,1.347,0,0,1,.456-.332,1.478,1.478,0,0,1,.619-.122,1.513,1.513,0,0,1,.646.136v.379a1.2,1.2,0,0,0-.673-.206,1.022,1.022,0,0,0-.451.1.969.969,0,0,0-.333.262,1.172,1.172,0,0,0-.206.387,1.525,1.525,0,0,0-.071.469,1.572,1.572,0,0,0,.06.437,1.091,1.091,0,0,0,.183.369.9.9,0,0,0,.313.255.989.989,0,0,0,.446.095,1.184,1.184,0,0,0,.723-.239Z" transform="translate(-960.039 -114.396)" fill="#999"/>
  <path id="Path_40730" data-name="Path 40730" d="M1059.568,138.448a1.059,1.059,0,0,0-.423.081.884.884,0,0,0-.324.235,1.054,1.054,0,0,0-.207.378,1.644,1.644,0,0,0-.073.508,1.493,1.493,0,0,0,.073.481,1.077,1.077,0,0,0,.2.367.878.878,0,0,0,.321.235,1.146,1.146,0,0,0,.847,0,.832.832,0,0,0,.312-.231,1.014,1.014,0,0,0,.193-.372,1.745,1.745,0,0,0,.066-.5,1.337,1.337,0,0,0-.256-.881.9.9,0,0,0-.732-.3m-.028,2.675a1.454,1.454,0,0,1-.569-.106,1.218,1.218,0,0,1-.43-.3,1.327,1.327,0,0,1-.273-.464,1.8,1.8,0,0,1-.094-.6,1.884,1.884,0,0,1,.1-.637,1.333,1.333,0,0,1,.285-.477,1.23,1.23,0,0,1,.446-.3,1.6,1.6,0,0,1,.585-.1,1.453,1.453,0,0,1,.557.1,1.14,1.14,0,0,1,.421.294,1.3,1.3,0,0,1,.264.468,1.979,1.979,0,0,1,.092.626,1.839,1.839,0,0,1-.1.608,1.375,1.375,0,0,1-.275.472,1.216,1.216,0,0,1-.434.307,1.479,1.479,0,0,1-.579.108" transform="translate(-963.805 -114.396)" fill="#999"/>
  <path id="Path_40731" data-name="Path 40731" d="M1070.294,141.056V139.38a2.054,2.054,0,0,0-.039-.433.758.758,0,0,0-.121-.288.471.471,0,0,0-.209-.162.822.822,0,0,0-.3-.05.621.621,0,0,0-.3.074.778.778,0,0,0-.244.2,1,1,0,0,0-.164.305,1.157,1.157,0,0,0-.06.379v1.648h-.357v-1.712q0-.9-.687-.9a.63.63,0,0,0-.3.071.732.732,0,0,0-.238.2.959.959,0,0,0-.159.308,1.294,1.294,0,0,0-.057.4v1.634h-.356v-2.851h.356v.462h.011a.954.954,0,0,1,.877-.529.87.87,0,0,1,.284.046.821.821,0,0,1,.422.325.883.883,0,0,1,.116.251,1.142,1.142,0,0,1,.391-.462.968.968,0,0,1,.544-.158q.938,0,.938,1.158v1.759Z" transform="translate(-968.874 -114.396)" fill="#999"/>
  <path id="Path_40732" data-name="Path 40732" d="M1078.872,139.87a1.02,1.02,0,0,0,.065.366.945.945,0,0,0,.182.3.849.849,0,0,0,.282.2.879.879,0,0,0,.366.075.819.819,0,0,0,.387-.091.84.84,0,0,0,.293-.258,1.242,1.242,0,0,0,.186-.4,1.97,1.97,0,0,0,.066-.529,1.569,1.569,0,0,0-.061-.453,1.033,1.033,0,0,0-.174-.343.751.751,0,0,0-.273-.217.833.833,0,0,0-.357-.075.954.954,0,0,0-.4.082.911.911,0,0,0-.3.224,1,1,0,0,0-.192.333,1.213,1.213,0,0,0-.067.4Zm0,.727v1.77h-.356v-4.162h.356v.545h.011a1.137,1.137,0,0,1,.424-.455,1.239,1.239,0,0,1,1.089-.058,1.016,1.016,0,0,1,.365.28,1.272,1.272,0,0,1,.228.44,1.988,1.988,0,0,1,.079.582,2.188,2.188,0,0,1-.089.644,1.479,1.479,0,0,1-.256.5,1.158,1.158,0,0,1-.406.324,1.208,1.208,0,0,1-.536.115.969.969,0,0,1-.9-.526Z" transform="translate(-975.883 -114.396)" fill="#999"/>
  <path id="Path_40733" data-name="Path 40733" d="M1087.017,139.672a2.264,2.264,0,0,0-.328.07.675.675,0,0,0-.225.113.423.423,0,0,0-.131.175.7.7,0,0,0-.042.257.543.543,0,0,0,.041.212.465.465,0,0,0,.117.168.528.528,0,0,0,.186.11.745.745,0,0,0,.249.039.825.825,0,0,0,.622-.273.928.928,0,0,0,.181-.307,1.109,1.109,0,0,0,.066-.387v-.281Zm.735,1.384v-.507h-.011a1.042,1.042,0,0,1-.38.423,1.006,1.006,0,0,1-.544.15,1.106,1.106,0,0,1-.371-.058.784.784,0,0,1-.281-.166.731.731,0,0,1-.178-.258.858.858,0,0,1-.062-.331.815.815,0,0,1,.239-.617,1.287,1.287,0,0,1,.724-.3l.866-.126q0-.821-.638-.821a1.4,1.4,0,0,0-.925.364v-.39a1.2,1.2,0,0,1,.2-.115,1.924,1.924,0,0,1,.239-.089,1.964,1.964,0,0,1,.257-.058,1.662,1.662,0,0,1,.257-.021.926.926,0,0,1,.72.267,1.148,1.148,0,0,1,.244.8v1.854Z" transform="translate(-980.281 -114.396)" fill="#999"/>
  <path id="Path_40734" data-name="Path 40734" d="M1095.337,141.056v-1.642q0-.967-.7-.966a.809.809,0,0,0-.345.074.824.824,0,0,0-.274.2.946.946,0,0,0-.181.31,1.122,1.122,0,0,0-.066.388v1.631h-.356v-2.851h.356v.5h.011a1.03,1.03,0,0,1,.955-.562.862.862,0,0,1,.713.3,1.368,1.368,0,0,1,.245.877v1.737Z" transform="translate(-984.728 -114.396)" fill="#999"/>
  <path id="Path_40735" data-name="Path 40735" d="M1101.36,141.672a1.7,1.7,0,0,1-.385.62.744.744,0,0,1-.526.2.8.8,0,0,1-.259-.037v-.334a.725.725,0,0,0,.251.044.455.455,0,0,0,.3-.11.879.879,0,0,0,.224-.333l.248-.585-1.1-2.836h.4l.816,2.257a1.023,1.023,0,0,1,.032.1c.01.038.02.076.029.113h.014c.009-.031.018-.063.026-.1a1.061,1.061,0,0,1,.035-.108l.866-2.268h.376Z" transform="translate(-988.71 -114.494)" fill="#999"/>
  <path id="Path_40736" data-name="Path 40736" d="M839.647,116.54c-1.9,2.005-2.6,1.991-4.566,0l-2.913-2.913H827.92l6.046,6.049a4.8,4.8,0,0,0,6.795,0l6.05-6.049H842.56Z" transform="translate(-826.388 -99.623)" fill="#ff7c04"/>
  <path id="Path_40737" data-name="Path 40737" d="M827.929,90.446c-1.2-1.538-.887-2.247.775-3.764l4.139-4.139c1.913-1.982,2.674-1.961,4.566,0l4.139,4.139a4.233,4.233,0,0,1,1.112,1.3,1.741,1.741,0,0,0-1.461-.633l-9.832.008a1.511,1.511,0,0,0-1.5,1.512v1.58H845.83a4.684,4.684,0,0,0-1.145-4.878l-6.161-6.161a4.806,4.806,0,0,0-6.795,0l-6.161,6.161a4.668,4.668,0,0,0-1.172,4.878Z" transform="translate(-824.15 -78)" fill="#ff7c04"/>
</svg>
