<svg xmlns="http://www.w3.org/2000/svg" xmlns:xlink="http://www.w3.org/1999/xlink" width="16" height="16" viewBox="0 0 16 16">
  <defs>
    <clipPath id="clip-path">
      <path id="Path_43357" data-name="Path 43357" d="M38.067-128.713a.757.757,0,0,0,.555-.231.761.761,0,0,0,.231-.558.751.751,0,0,0-.231-.555.765.765,0,0,0-.558-.228.758.758,0,0,0-.555.227.757.757,0,0,0-.228.558.761.761,0,0,0,.229.556A.756.756,0,0,0,38.067-128.713Zm-.727-2.876h1.233a3.189,3.189,0,0,1,.128-.926,2.286,2.286,0,0,1,.784-.966,3.229,3.229,0,0,0,.855-.992,2.382,2.382,0,0,0,.254-1.1,2.228,2.228,0,0,0-.672-1.7,2.5,2.5,0,0,0-1.8-.637,3.063,3.063,0,0,0-1.735.5,2.874,2.874,0,0,0-1.1,1.368l1.119.422a1.869,1.869,0,0,1,.648-.859,1.663,1.663,0,0,1,.989-.3,1.5,1.5,0,0,1,1.021.346,1.135,1.135,0,0,1,.4.9,1.428,1.428,0,0,1-.249.8,3.607,3.607,0,0,1-.718.77,3.874,3.874,0,0,0-.87,1.02A2.781,2.781,0,0,0,37.34-131.589ZM38-125.3a7.767,7.767,0,0,1-3.1-.628,8.089,8.089,0,0,1-2.549-1.718,8.091,8.091,0,0,1-1.718-2.548A7.762,7.762,0,0,1,30-133.3a7.816,7.816,0,0,1,.628-3.123,7.98,7.98,0,0,1,1.717-2.539,8.194,8.194,0,0,1,2.548-1.71,7.743,7.743,0,0,1,3.1-.63,7.8,7.8,0,0,1,3.124.63,8.078,8.078,0,0,1,2.54,1.709,8.076,8.076,0,0,1,1.71,2.539A7.8,7.8,0,0,1,46-133.3a7.746,7.746,0,0,1-.63,3.1,8.2,8.2,0,0,1-1.71,2.548,7.981,7.981,0,0,1-2.539,1.717A7.812,7.812,0,0,1,38-125.3Zm0-1.342a6.409,6.409,0,0,0,4.717-1.945,6.427,6.427,0,0,0,1.938-4.71,6.42,6.42,0,0,0-1.938-4.717A6.423,6.423,0,0,0,38-139.958a6.425,6.425,0,0,0-4.707,1.938,6.41,6.41,0,0,0-1.946,4.719,6.413,6.413,0,0,0,1.945,4.707A6.414,6.414,0,0,0,38-126.647Z" transform="translate(-30 141.305)" fill="#333"/>
    </clipPath>
  </defs>
  <g id="Group_50310" data-name="Group 50310" clip-path="url(#clip-path)">
    <path id="Path_43356" data-name="Path 43356" d="M29-142.3H46.6v17.6H29Z" transform="translate(-29.8 141.505)" fill="#333"/>
  </g>
</svg>
