<svg id="Group_8" data-name="Group 8" xmlns="http://www.w3.org/2000/svg" xmlns:xlink="http://www.w3.org/1999/xlink" width="24" height="24" viewBox="0 0 24 24">
  <defs>
    <clipPath id="clip-path">
      <path id="Clip_2" data-name="Clip 2" d="M0,0H24V24H0Z" fill="none"/>
    </clipPath>
  </defs>
  <g id="Group_3" data-name="Group 3">
    <path id="Clip_2-2" data-name="Clip 2" d="M0,0H24V24H0Z" fill="none"/>
    <g id="Group_3-2" data-name="Group 3" clip-path="url(#clip-path)">
      <path id="Fill_1" data-name="Fill 1" d="M11.915,24a12.611,12.611,0,0,1-3.088-.4,11.689,11.689,0,0,1-4.489-2.273A12.444,12.444,0,0,1,1.2,17.26,10.243,10.243,0,0,1,.067,13.37a12.3,12.3,0,0,1,4-10.478A10.85,10.85,0,0,1,8.228.589,13.384,13.384,0,0,1,11.87,0h.152a11.906,11.906,0,0,1,5.36,1.286A13.628,13.628,0,0,1,19.36,2.577l.215.158a9.941,9.941,0,0,1,2.6,2.919A11.548,11.548,0,0,1,23.714,9.6c.1.54.153,1.1.208,1.636.024.241.049.487.077.729l-.073.006a10.548,10.548,0,0,1-.749,4.332,11.891,11.891,0,0,1-2.683,4.268,11.811,11.811,0,0,1-4.707,2.844,13.273,13.273,0,0,1-2.92.55C12.554,23.987,12.233,24,11.915,24Zm.1-21.9A9.975,9.975,0,0,0,5.034,4.993,9.849,9.849,0,0,0,5,18.946a9.926,9.926,0,0,0,6.944,2.923h.1a9.886,9.886,0,0,0,6.922-3.015,9.641,9.641,0,0,0,2.886-6.872,9.945,9.945,0,0,0-9.832-9.877Z" transform="translate(0.001 0)" fill="#004994"/>
    </g>
  </g>
  <path id="Fill_4" data-name="Fill 4" d="M2.171,4.86q0,1.819,0,3.638a1,1,0,0,1-.616,1.016,1.093,1.093,0,0,1-1.221-.23,1.074,1.074,0,0,1-.329-.856C0,7.182,0,5.937,0,4.69,0,3.519,0,2.348.006,1.177A1.119,1.119,0,0,1,.548.149,1.075,1.075,0,0,1,2.172,1.172c-.011,1.229,0,2.459,0,3.688Z" transform="translate(10.896 8.918)" fill="#004994"/>
  <path id="Fill_6" data-name="Fill 6" d="M0,1.005A1,1,0,0,1,1.039,0,1.019,1.019,0,0,1,2.124,1.049,1.077,1.077,0,0,1,1.078,2.134,1.087,1.087,0,0,1,0,1.005" transform="translate(10.942 5.479)" fill="#004994"/>
</svg>
