<svg id="Group_169122" data-name="Group 169122" xmlns="http://www.w3.org/2000/svg" width="24" height="24" viewBox="0 0 24 24">
  <rect id="Rectangle_21947" data-name="Rectangle 21947" width="24" height="24" fill="none"/>
  <path id="home_FILL0_wght200_GRAD0_opsz24_1_" data-name="home_FILL0_wght200_GRAD0_opsz24 (1)" d="M201.286-758.555h4.747v-5.94a.873.873,0,0,1,.3-.673,1.058,1.058,0,0,1,.74-.272h3.857a1.058,1.058,0,0,1,.74.272.873.873,0,0,1,.3.673v5.94h4.747v-10.17a.629.629,0,0,0-.087-.326.9.9,0,0,0-.235-.259l-6.923-4.747a.731.731,0,0,0-.47-.157.731.731,0,0,0-.47.157l-6.923,4.747a.9.9,0,0,0-.235.259.629.629,0,0,0-.087.326Zm-1.286,0v-10.17a1.74,1.74,0,0,1,.221-.85,1.866,1.866,0,0,1,.61-.662l6.923-4.77a2.122,2.122,0,0,1,1.242-.378,2.159,2.159,0,0,1,1.25.378l6.923,4.77a1.866,1.866,0,0,1,.61.662,1.74,1.74,0,0,1,.221.85v10.17a1.077,1.077,0,0,1-.384.82,1.3,1.3,0,0,1-.9.35H211.72a1.058,1.058,0,0,1-.74-.272.874.874,0,0,1-.3-.673v-5.94h-3.363v5.94a.874.874,0,0,1-.3.673,1.058,1.058,0,0,1-.74.272h-4.995a1.3,1.3,0,0,1-.9-.35A1.076,1.076,0,0,1,200-758.555ZM209-766.408Z" transform="translate(-197 778.385)" fill="#333"/>
</svg>
