<svg xmlns="http://www.w3.org/2000/svg" width="24" height="24" viewBox="0 0 24 24">
  <g id="Group_169254" data-name="Group 169254" transform="translate(-26 -674)">
    <g id="Group_169255" data-name="Group 169255" transform="translate(0 -1)">
      <g id="Group_3" data-name="Group 3" transform="translate(29 678)">
        <path id="Clip_2" data-name="Clip 2" d="M0,0H14.854V18H0Z" transform="translate(0 0)" fill="none"/>
        <g id="Group_169231" data-name="Group 169231">
          <path id="Fill_1" data-name="Fill 1" d="M0,8.981q0-3.145,0-6.29a5.381,5.381,0,0,1,.047-.82A2.338,2.338,0,0,1,2.238.02C2.886,0,3.536.006,4.185.006Q7.22,0,10.254,0c.783,0,1.568-.012,2.35.02A2.288,2.288,0,0,1,14.824,2a1.718,1.718,0,0,1,0,.461c-.092.418-.423.62-.943.6a.709.709,0,0,1-.722-.648.958.958,0,0,0-1.1-.885q-4.643-.007-9.287,0c-.7,0-1.059.348-1.059,1q0,6.477,0,12.954a.854.854,0,0,0,.641.908,1.868,1.868,0,0,0,.4.027q1.768,0,3.537,0h5.144c.288,0,.576,0,.863,0a.808.808,0,0,0,.828-.677c.01-.055.024-.11.035-.164a.812.812,0,0,1,1.024-.653.822.822,0,0,1,.668.926,2.255,2.255,0,0,1-1.13,1.782,2.715,2.715,0,0,1-1.471.365q-4.714.011-9.427,0A4.386,4.386,0,0,1,1.806,17.9,2.218,2.218,0,0,1,.015,15.832c-.008-1.7-.008-3.407-.012-5.11,0-.58,0-1.161,0-1.741Z" transform="translate(0 0)"/>
        </g>
      </g>
      <g id="Group_6" data-name="Group 6" transform="translate(36.775 682.674)">
        <path id="Clip_5" data-name="Clip 5" d="M0,0H10.225V8.652H0Z" fill="none"/>
        <g id="Group_169232" data-name="Group 169232" transform="translate(0 0)">
          <path id="Fill_4" data-name="Fill 4" d="M7.478,5.185a1.088,1.088,0,0,0-.184-.036Q4.126,5.143.958,5.14c-.092,0-.185,0-.277,0a.721.721,0,0,1-.67-.655.8.8,0,0,1,.464-.909,1.5,1.5,0,0,1,.96-.016.946.946,0,0,0,.272.038q1.035.006,2.069,0A.977.977,0,0,0,4,3.535a.267.267,0,0,1,.1-.015,3.32,3.32,0,0,0,.446.073c.64.008,1.281.017,1.921,0,.325-.01.648-.079,1-.126a1.664,1.664,0,0,0-.131-.179q-.8-.841-1.61-1.678A1,1,0,0,1,5.4.588.739.739,0,0,1,6.487.1a1.429,1.429,0,0,1,.339.264c1.031,1.09,2.063,2.18,3.083,3.281a.948.948,0,0,1-.019,1.43Q8.33,6.71,6.769,8.344a.841.841,0,0,1-.886.274.857.857,0,0,1-.444-1.194,2.182,2.182,0,0,1,.233-.3q.872-.919,1.748-1.833a.56.56,0,0,0,.057-.109" transform="translate(0 0)"/>
        </g>
      </g>
    </g>
    <rect id="Rectangle_22072" data-name="Rectangle 22072" width="24" height="24" transform="translate(26 674)" fill="none"/>
  </g>
</svg>
