<svg xmlns="http://www.w3.org/2000/svg" width="24" height="24" viewBox="0 0 24 24">
  <g id="Group_169253" data-name="Group 169253" transform="translate(-15 -173)">
    <g id="Group_168670" data-name="Group 168670" transform="translate(18 176)">
      <g id="Group_49940" data-name="Group 49940" transform="translate(7 7)">
        <path id="Path_46505" data-name="Path 46505" d="M2.064,4.127A2.064,2.064,0,1,0,0,2.064,2.064,2.064,0,0,0,2.064,4.127Z" fill="none" stroke="#fff" stroke-linecap="round" stroke-linejoin="round" stroke-width="1.3"/>
      </g>
      <g id="Group_49941" data-name="Group 49941">
        <path id="Path_46506" data-name="Path 46506" d="M15.84,9a6.3,6.3,0,0,0-.161-1.4L18,5.917,16.29,3.083,13.6,4.168a6.9,6.9,0,0,0-2.532-1.406L10.71,0H7.29L6.929,2.761A6.9,6.9,0,0,0,4.4,4.168L1.71,3.083,0,5.917,2.321,7.6a6.183,6.183,0,0,0,0,2.8L0,12.083l1.71,2.834L4.4,13.832a6.9,6.9,0,0,0,2.532,1.406L7.29,18h3.42l.361-2.761A6.9,6.9,0,0,0,13.6,13.832l2.687,1.085L18,12.083,15.679,10.4A6.3,6.3,0,0,0,15.84,9Z" fill="none" stroke="#fff" stroke-linecap="round" stroke-linejoin="round" stroke-width="1.3"/>
      </g>
    </g>
    <rect id="Rectangle_22071" data-name="Rectangle 22071" width="24" height="24" transform="translate(15 173)" fill="none"/>
  </g>
</svg>
